<?xml version="1.0" standalone="no"?><!DOCTYPE svg PUBLIC "-//W3C//DTD SVG 1.1//EN" "http://www.w3.org/Graphics/SVG/1.1/DTD/svg11.dtd"><svg t="1726218074270" class="icon" viewBox="0 0 1024 1024" version="1.1" xmlns="http://www.w3.org/2000/svg" p-id="16874" xmlns:xlink="http://www.w3.org/1999/xlink" width="200" height="200"><path d="M725.248 170.7008C640 85.3504 554.5984 384 554.5984 384l234.6496 42.7008s32-160-64-256z" fill="#F57C00" p-id="16875"></path><path d="M511.8976 320C575.8976 277.3504 746.5472 256 746.5472 256s-182.1184 5.7344-213.2992 21.3504c0 0 42.6496-42.7008 42.6496-85.3504 0 0-64 106.6496-170.6496 106.6496 0 0-160-181.2992-277.3504-64-74.6496 74.7008-42.6496 448 249.6512 521.4208 24.7808 6.1952 67.584 90.0608 180.1216 112.5376 84.9408 16.9984 493.5168-62.1056 319.3344-210.432a43.776 43.776 0 0 1-12.7488-46.7968c10.7008-32.768 27.136-84.3264 10.2912-142.0288-12.6464-43.52-21.2992-85.3504-128-128-59.5968-23.8592-234.6496-21.3504-234.6496-21.3504z" fill="#FB8C00" p-id="16876"></path><path d="M256.0512 490.6496s64 85.3504 106.7008 0C416.9728 382.2592 218.112 188.4672 128 256c-90.0608 67.584-42.6496 448 249.6512 500.0704 0 0-82.5344-133.8368-14.9504-201.3696 0 0-61.6448 48.5376-106.7008-64z" fill="#FFCDD2" p-id="16877"></path><path d="M625.2544 666.0096s-151.3472-245.9648-37.888-234.9056c24.576 2.4064 46.1824 17.152 59.392 37.888a225.6896 225.6896 0 0 1 23.552 197.0176h-45.056zM783.0016 666.0096s-64.9728-252.5184 22.528-202.6496c47.872 27.3408 22.528 202.6496 22.528 202.6496h-45.056z" fill="#FFFFFF" p-id="16878"></path><path d="M681.0624 624.2304c0-38.4-12.4416-69.5808-27.8016-69.5808-15.36 0-27.8528 31.1296-27.8528 69.632 0 15.7184 2.1504 30.0544 5.6832 41.728h44.288a146.944 146.944 0 0 0 5.6832-41.7792zM805.12 607.6416c0-31.0784-10.0864-56.32-22.528-56.32-7.3728 0-13.7216 9.3184-17.8176 23.0912 6.8608 46.848 17.8176 89.4976 17.8176 89.4976 12.4416 0 22.528-25.1904 22.528-56.32z" fill="#212121" p-id="16879"></path><path d="M602.7776 666.0096s67.584-22.528 135.1168 22.528c0 0 67.5328-67.584 112.5376 0 0 0 22.528 45.056-45.056 67.5328 0 0 11.1616 73.5744-101.376 118.6304 0 0-32.0512 117.2992-149.3504 0 0 0-42.7008-42.7008-64.4608-141.1584 0 0 180.1728 45.056 112.64-67.5328z" fill="#FFE082" p-id="16880"></path><path d="M767.9488 768c-17.6128 6.4-30.1056-11.9296-30.1056-11.9296-87.8592 43.9296-132.7104-19.0976-134.8608-22.2208-6.2976 3.584-39.7824-9.7792-48.384-8.4992l21.3504 64c42.6496 128 94.3616 79.2576 94.3616 79.2576 46.3872-61.7984 54.9376-79.2576 97.6384-100.608z" fill="#212121" p-id="16881"></path><path d="M609.6896 798.7712c-16.2304-20.0192-33.6896-9.4208-33.6896-9.4208 42.6496 170.6496 106.6496 64 106.6496 64-17.1008-51.4048-59.5456-57.856-72.96-54.5792z" fill="#FF5252" p-id="16882"></path><path d="M715.4176 688.4864l32.5632 32.5632a21.248 21.248 0 0 0 27.648 2.1504c25.344-18.944 64-57.1904-37.6832-57.1904-45.056 0-22.528 22.528-22.528 22.528z" fill="#212121" p-id="16883"></path><path d="M597.4016 618.6496s128 170.6496-85.3504 128l-106.6496-21.3504 192-106.6496z" fill="#FB8C00" p-id="16884"></path><path d="M749.1584 686.6944c11.776 0 21.2992-3.1744 21.2992-7.1168 0-3.9424-9.5232-7.168-21.2992-7.168-11.776 0-21.3504 3.2256-21.3504 7.168 0 3.9424 9.5232 7.168 21.3504 7.168z" fill="#FFFFFF" p-id="16885"></path><path d="M768 405.3504c11.0592-7.0656 23.8592-9.8304 36.2496-10.8544 11.776-0.8704 23.3984 0.3584 34.816 2.6624a155.648 155.648 0 0 0-20.2752-17.6128c-5.7344 1.1776-11.3664 2.56-16.7936 4.5056-12.8 4.7104-25.1904 11.3664-33.9968 21.2992zM501.4016 458.6496c-1.1776-17.7152 2.56-35.6864 10.752-52.224 8.0896-16.3328 23.296-32.256 43.7248-36.4544 20.2752-4.2496 39.2192 2.7136 55.0912 11.008 7.4752 5.12 14.9504 10.0864 21.6064 15.872 6.3488 6.2464 12.4928 12.4928 18.176 19.1488a325.2224 325.2224 0 0 1-23.0912-11.8784c-7.5776-3.8912-15.5136-6.656-22.784-10.3424-15.5136-4.9152-30.9248-8.96-44.8512-5.632-13.824 3.2256-25.3952 13.2608-34.6624 26.2144-9.3184 13.0048-16.896 28.16-23.9616 44.288z" fill="#000000" p-id="16886"></path></svg>